<?xml version="1.0" encoding="UTF-8" standalone="no"?>
<svg
   xmlns:dc="http://purl.org/dc/elements/1.1/"
   xmlns:cc="http://creativecommons.org/ns#"
   xmlns:rdf="http://www.w3.org/1999/02/22-rdf-syntax-ns#"
   xmlns:svg="http://www.w3.org/2000/svg"
   xmlns="http://www.w3.org/2000/svg"
   xmlns:sodipodi="http://sodipodi.sourceforge.net/DTD/sodipodi-0.dtd"
   xmlns:inkscape="http://www.inkscape.org/namespaces/inkscape"
   width="64"
   height="64"
   id="svg2"
   version="1.1"
   inkscape:version="0.91 r13725"
   sodipodi:docname="ZoomOut.svg">
  <metadata
     id="metadata14">
    <rdf:RDF>
      <cc:Work
         rdf:about="">
        <dc:format>image/svg+xml</dc:format>
        <dc:type
           rdf:resource="http://purl.org/dc/dcmitype/StillImage" />
      </cc:Work>
    </rdf:RDF>
  </metadata>
  <defs
     id="defs12" />
  <sodipodi:namedview
     pagecolor="#ffffff"
     bordercolor="#666666"
     borderopacity="1"
     objecttolerance="10"
     gridtolerance="10"
     guidetolerance="10"
     inkscape:pageopacity="0"
     inkscape:pageshadow="2"
     inkscape:window-width="790"
     inkscape:window-height="480"
     id="namedview10"
     showgrid="false"
     inkscape:zoom="10.429825"
     inkscape:cx="27.954015"
     inkscape:cy="46.40949"
     inkscape:window-x="0"
     inkscape:window-y="0"
     inkscape:window-maximized="0"
     inkscape:current-layer="svg2" />
  <path
     inkscape:connector-curvature="0"
     id="path6"
     style="fill:#333333"
     d="M 58.168086,50.559665 46.013083,38.407063 c -0.914415,-0.914416 -2.301638,-1.064418 -3.386457,-0.471608 l -2.592043,-2.592043 c 2.208037,-3.135653 3.518459,-6.949316 3.518459,-11.067785 0,-10.628577 -8.648544,-19.2759212 -19.277121,-19.2759212 -10.628577,0 -19.2759216,8.6461442 -19.2759216,19.2759212 0,10.629777 8.6461436,19.277121 19.2759216,19.277121 4.101668,0 7.898531,-1.296021 11.025783,-3.487258 l 2.608844,2.611244 c -0.560409,1.075218 -0.403207,2.43484 0.496808,3.337255 l 12.155003,12.152603 c 1.108818,1.111218 2.926849,1.111218 4.035667,0 l 3.57246,-3.57006 c 1.106418,-1.110018 1.106418,-2.925648 -0.0024,-4.036867 z M 24.274721,36.415029 c -6.700912,0 -12.135803,-5.43489 -12.135803,-12.138202 0,-6.700912 5.434891,-12.135802 12.135803,-12.135802 6.703311,0 12.138202,5.43489 12.138202,12.135802 0,6.702112 -5.434891,12.138202 -12.138202,12.138202 z" />
  <path
     inkscape:connector-curvature="0"
     id="path8"
     style="fill:#333333"
     d="m 30.23522,21.887587 c -12.0002,0 0,0 -12.0002,0 -1.324822,0 -2.40004,1.075218 -2.40004,2.40004 0,1.326022 1.075218,2.40004 2.40004,2.40004 12.0002,0 0,0 12.0002,0 1.326022,0 2.40004,-1.074018 2.40004,-2.40004 0,-1.323622 -1.072818,-2.40004 -2.40004,-2.40004 z"
     sodipodi:nodetypes="ccsccsc" />
</svg>
