<?xml version="1.0" encoding="UTF-8" standalone="no"?>
<svg width="64" height="64">
	<path style="fill:#333333"
	      d="M 58.168086,50.559665 46.013083,38.407063 c -0.914415,-0.914416 -2.301638,-1.064418 -3.386457,-0.471608 l -2.592043,-2.592043 c 2.208037,-3.135653 3.518459,-6.949316 3.518459,-11.067785 0,-10.628577 -8.648544,-19.2759212 -19.277121,-19.2759212 -10.628577,0 -19.2759216,8.6461442 -19.2759216,19.2759212 0,10.629777 8.6461436,19.277121 19.2759216,19.277121 4.101668,0 7.898531,-1.296021 11.025783,-3.487258 l 2.608844,2.611244 c -0.560409,1.075218 -0.403207,2.43484 0.496808,3.337255 l 12.155003,12.152603 c 1.108818,1.111218 2.926849,1.111218 4.035667,0 l 3.57246,-3.57006 c 1.106418,-1.110018 1.106418,-2.925648 -0.0024,-4.036867 z M 24.274721,36.415029 c -6.700912,0 -12.135803,-5.43489 -12.135803,-12.138202 0,-6.700912 5.434891,-12.135802 12.135803,-12.135802 6.703311,0 12.138202,5.43489 12.138202,12.135802 0,6.702112 -5.434891,12.138202 -12.138202,12.138202 z" />
	<path style="fill:#333333"
	      d="m 30.23522,21.887587 c -12.0002,0 0,0 -12.0002,0 -1.324822,0 -2.40004,1.075218 -2.40004,2.40004 0,1.326022 1.075218,2.40004 2.40004,2.40004 12.0002,0 0,0 12.0002,0 1.326022,0 2.40004,-1.074018 2.40004,-2.40004 0,-1.323622 -1.072818,-2.40004 -2.40004,-2.40004 z"/>
</svg>
